HIERARCHY
ROOT Hips
{
	OFFSET 0.000000 0.000000 0.000000
	CHANNELS 6 Xposition Yposition Zposition Zrotation Yrotation Xrotation 
	JOINT LHipJoint
	{
		OFFSET 0.000000 0.000000 0.000000
		CHANNELS 3 Zrotation Yrotation Xrotation
		JOINT LeftUpLeg
		{
			OFFSET 1.363060 -1.794630 0.839290
			CHANNELS 3 Zrotation Yrotation Xrotation
			JOINT LeftLeg
			{
				OFFSET 2.448110 -6.726130 0.000000
				CHANNELS 3 Zrotation Yrotation Xrotation
				JOINT LeftFoot
				{
					OFFSET 2.562200 -7.039590 0.000000
					CHANNELS 3 Zrotation Yrotation Xrotation
					JOINT LeftToeBase
					{
						OFFSET 0.157640 -0.433110 2.322550
						CHANNELS 3 Zrotation Yrotation Xrotation
						End Site
						{
							OFFSET 0.000000 0.000000 0.000000
						}
					}
				}
			}
		}
	}
	JOINT RHipJoint
	{
		OFFSET 0.000000 0.000000 0.000000
		CHANNELS 3 Zrotation Yrotation Xrotation
		JOINT RightUpLeg
		{
			OFFSET -1.305520 -1.794630 0.839290
			CHANNELS 3 Zrotation Yrotation Xrotation
			JOINT RightLeg
			{
				OFFSET -2.542530 -6.985550 0.000000
				CHANNELS 3 Zrotation Yrotation Xrotation
				JOINT RightFoot
				{
					OFFSET -2.568260 -7.056230 0.000000
					CHANNELS 3 Zrotation Yrotation Xrotation
					JOINT RightToeBase
					{
						OFFSET -0.164730 -0.452590 2.363150
						CHANNELS 3 Zrotation Yrotation Xrotation
						End Site
						{
							OFFSET 0.000000 0.000000 0.000000
						}
					}
				}
			}
		}
	}
	JOINT LowerBack
	{
		OFFSET 0.000000 0.000000 0.000000
		CHANNELS 3 Zrotation Yrotation Xrotation
		JOINT Spine
		{
			OFFSET 0.028270 2.035590 -0.193380
			CHANNELS 3 Zrotation Yrotation Xrotation
			JOINT Spine1
			{
				OFFSET 0.056720 2.048850 -0.042750
				CHANNELS 3 Zrotation Yrotation Xrotation
				JOINT Neck
				{
					OFFSET 0.000000 0.000000 0.000000
					CHANNELS 3 Zrotation Yrotation Xrotation
					JOINT Neck1
					{
						OFFSET -0.054170 1.746240 0.172020
						CHANNELS 3 Zrotation Yrotation Xrotation
						JOINT Head
						{
							OFFSET 0.104070 1.761360 -0.123970
							CHANNELS 3 Zrotation Yrotation Xrotation
							End Site
							{
								OFFSET 0.000000 0.000000 0.000000
							}
						}
					}
				}
				JOINT LeftShoulder
				{
					OFFSET 0.000000 0.000000 0.000000
					CHANNELS 3 Zrotation Yrotation Xrotation
					JOINT LeftArm
					{
						OFFSET 3.362410 1.200890 -0.311210
						CHANNELS 3 Zrotation Yrotation Xrotation
						JOINT LeftForeArm
						{
							OFFSET 4.983000 -0.000000 -0.000000
							CHANNELS 3 Zrotation Yrotation Xrotation
							JOINT LeftHand
							{
								OFFSET 3.483560 -0.000000 -0.000000
								CHANNELS 3 Zrotation Yrotation Xrotation
								JOINT LeftFingerBase
								{
									OFFSET 0.000000 0.000000 0.000000
									CHANNELS 3 Zrotation Yrotation Xrotation
									JOINT LeftHandIndex1
									{
										OFFSET 0.715260 -0.000000 -0.000000
										CHANNELS 3 Zrotation Yrotation Xrotation
										End Site
										{
											OFFSET 0.000000 0.000000 0.000000
										}
									}
								}
								JOINT LThumb
								{
									OFFSET 0.000000 0.000000 0.000000
									CHANNELS 3 Zrotation Yrotation Xrotation
									End Site
									{
										OFFSET 0.000000 0.000000 0.000000
									}
								}
							}
						}
					}
				}
				JOINT RightShoulder
				{
					OFFSET 0.000000 0.000000 0.000000
					CHANNELS 3 Zrotation Yrotation Xrotation
					JOINT RightArm
					{
						OFFSET -3.136600 1.374050 -0.404650
						CHANNELS 3 Zrotation Yrotation Xrotation
						JOINT RightForeArm
						{
							OFFSET -5.241900 -0.000000 -0.000000
							CHANNELS 3 Zrotation Yrotation Xrotation
							JOINT RightHand
							{
								OFFSET -3.444170 -0.000000 -0.000000
								CHANNELS 3 Zrotation Yrotation Xrotation
								JOINT RightFingerBase
								{
									OFFSET 0.000000 0.000000 0.000000
									CHANNELS 3 Zrotation Yrotation Xrotation
									JOINT RightHandIndex1
									{
										OFFSET -0.622530 -0.000000 -0.000000
										CHANNELS 3 Zrotation Yrotation Xrotation
										End Site
										{
											OFFSET 0.000000 0.000000 0.000000
										}
									}
								}
								JOINT RThumb
								{
									OFFSET 0.000000 0.000000 0.000000
									CHANNELS 3 Zrotation Yrotation Xrotation
									End Site
									{
										OFFSET 0.000000 0.000000 0.000000
									}
								}
							}
						}
					}
				}
			}
		}
	}
}
MOTION
Frames: 7
Frame Time: 0.008333
-0.613197 17.473837 -1.699935 97.719159 -71.984256 -77.692380 -5.609190 -3.939098 3.180404 -3.223216 -20.626542 -96.969459 -5.295562 -2.793633 -6.964248 -1.464392 -5.724501 12.907062 -1.154900 -0.000001 -57.153601 8.099716 3.956798 -5.761557 -6.654194 1.851195 -20.750769 0.464636 -0.701200 12.263041 -1.055995 -3.943030 -2.631147 -0.720700 -0.000001 -55.357100 1.154726 -1.076863 8.839919 -0.315521 -0.854521 -1.676185 -4.709661 -0.974595 -1.453833 13.376757 6.937472 2.268530 -4.120467 -0.356166 2.231835 0.000000 0.000000 0.000000 -6.509191 -10.412223 2.834934 -65.723004 -10.478623 11.797619 -2.820375 -27.132180 0.002309 2.147661 -4.447359 -0.087896 -0.071349 0.118452 -0.000000 0.000000 0.000000 0.000000 0.000000 0.000000 0.000000 22.533286 5.156243 2.562649 54.445213 20.537740 -8.373296 2.712198 12.268539 0.002250 -2.454085 9.800281 -0.216294 0.040225 -0.123272 0.000000 0.000000 0.000000 0.000000 0.000000 0.000000 0.000000 
-0.613507 17.473639 -1.696021 98.080086 -71.880663 -77.902721 -5.650870 -3.901339 3.221037 -3.000065 -20.659112 -96.646328 -5.197603 -2.699188 -6.482017 -1.380634 -5.186949 13.097141 -0.967700 0.000000 -57.040600 8.101508 3.969289 -5.702407 -6.794882 1.891605 -21.037740 0.450223 -0.698444 12.375279 -1.050304 -3.904140 -2.637989 -0.716000 -0.000000 -55.396100 1.208711 -1.089137 8.739092 -0.301431 -0.870448 -1.687230 -4.690676 -0.990969 -1.415315 13.326537 6.929508 2.261626 -4.121657 -0.356245 2.230649 0.000000 0.000000 0.000000 -6.579990 -10.293580 2.802673 -65.990368 -10.383377 11.887167 -2.808830 -27.232834 0.002507 1.963238 -4.393501 -0.079496 -0.069678 0.118097 -0.000000 0.000000 0.000000 0.000000 0.000000 0.000000 0.000000 22.505103 5.116675 2.556036 54.440715 20.515076 -8.904377 2.724684 11.646497 0.002403 -2.399121 9.616648 -0.207598 0.040900 -0.121801 0.000000 0.000000 0.000000 0.000000 0.000000 0.000000 0.000000 
-0.614047 17.473257 -1.692175 98.424002 -71.790411 -78.121060 -5.706093 -3.859250 3.253307 -2.782349 -20.698954 -96.267473 -5.074817 -2.559331 -5.790559 -1.273895 -4.498415 13.488653 -0.732001 -0.000000 -56.915599 8.106912 3.979261 -5.643450 -6.922745 1.935419 -21.297989 0.436356 -0.696613 12.491866 -1.045715 -3.870983 -2.650653 -0.711500 -0.000000 -55.436700 1.265924 -1.100636 8.642857 -0.287297 -0.885489 -1.699836 -4.675659 -1.006559 -1.384552 13.287079 6.898027 2.232746 -4.123840 -0.356255 2.223965 0.000000 0.000000 0.000000 -6.642957 -10.175605 2.776470 -66.243657 -10.295347 11.997588 -2.798246 -27.328759 0.002692 1.785923 -4.338342 -0.071497 -0.068099 0.117845 -0.000000 0.000000 0.000000 0.000000 0.000000 0.000000 0.000000 22.489305 5.067767 2.554220 54.435095 20.448244 -9.338515 2.736687 11.152917 0.002543 -2.338827 9.434150 -0.198601 0.041501 -0.120496 0.000000 0.000000 0.000000 0.000000 0.000000 0.000000 0.000000 
-0.615006 17.472671 -1.688137 98.802778 -71.717262 -78.403468 -5.775272 -3.809293 3.264060 -2.675142 -20.738628 -95.830524 -4.948519 -2.374755 -4.875995 -1.166575 -3.819760 14.033332 -0.502000 0.000000 -56.716400 8.113446 3.983165 -5.581176 -7.026732 1.990720 -21.528289 0.424707 -0.694245 12.607986 -1.040449 -3.835295 -2.667914 -0.706300 -0.000000 -55.465300 1.330172 -1.107142 8.559014 -0.272307 -0.895178 -1.712550 -4.663753 -1.016890 -1.361870 13.254560 6.834527 2.183673 -4.127108 -0.356216 2.212165 0.000000 0.000000 0.000000 -6.701697 -10.069859 2.754413 -66.484240 -10.198216 12.110836 -2.786625 -27.427676 0.002857 1.619325 -4.285864 -0.064197 -0.066502 0.117612 -0.000000 0.000000 0.000000 0.000000 0.000000 0.000000 0.000000 22.483126 4.999993 2.557710 54.423523 20.351890 -9.617325 2.750076 10.778754 0.002672 -2.292134 9.269358 -0.191403 0.042200 -0.119385 0.000000 0.000000 0.000000 0.000000 0.000000 0.000000 0.000000 
-0.616136 17.472084 -1.684030 99.253806 -71.655774 -78.788007 -5.851769 -3.760923 3.252525 -2.612434 -20.751261 -95.280354 -4.805120 -2.168584 -3.889679 -1.053248 -3.119624 14.754783 -0.262400 -0.000001 -56.532600 8.122818 3.984098 -5.517251 -7.115008 2.060499 -21.721207 0.414444 -0.690850 12.709988 -1.033198 -3.791652 -2.680963 -0.700400 -0.000000 -55.496100 1.393497 -1.107693 8.492209 -0.258113 -0.898498 -1.723649 -4.654423 -1.020867 -1.346958 13.228617 6.760515 2.119392 -4.130057 -0.356063 2.196376 0.000000 0.000000 0.000000 -6.758960 -9.958987 2.737516 -66.706623 -10.111479 12.239422 -2.775277 -27.517012 0.002996 1.474693 -4.241007 -0.057998 -0.065037 0.117460 -0.000000 0.000000 0.000000 0.000000 0.000000 0.000000 0.000000 22.479019 4.938036 2.564497 54.416527 20.208626 -9.787860 2.762917 10.532926 0.002792 -2.244037 9.125760 -0.184604 0.042803 -0.118479 0.000000 0.000000 0.000000 0.000000 0.000000 0.000000 0.000000 
-0.617597 17.471513 -1.679659 99.811595 -71.608328 -79.308314 -5.935086 -3.714190 3.214149 -2.631002 -20.723727 -94.612084 -4.656155 -1.948334 -2.858986 -0.946970 -2.491609 15.598650 -0.046900 -0.000000 -56.358100 8.132428 3.979346 -5.448207 -7.180145 2.154897 -21.877942 0.406327 -0.684896 12.789881 -1.023521 -3.739037 -2.686663 -0.694100 0.000001 -55.522000 1.460302 -1.100039 8.442281 -0.243688 -0.893276 -1.732865 -4.646813 -1.016328 -1.339058 13.204947 6.677016 2.043714 -4.132397 -0.355809 2.177612 0.000000 0.000000 0.000000 -6.818422 -9.844821 2.724256 -66.911797 -10.027897 12.372848 -2.763206 -27.598507 0.003100 1.356160 -4.207314 -0.052999 -0.063674 0.117347 -0.000000 0.000000 0.000000 0.000000 0.000000 0.000000 0.000000 22.471345 4.881797 2.573666 54.414077 20.025364 -9.836585 2.776023 10.405034 0.002910 -2.201958 9.010954 -0.178905 0.043388 -0.117782 0.000000 0.000000 0.000000 0.000000 0.000000 0.000000 0.000000 
-0.619649 17.471098 -1.674776 100.497023 -71.575660 -79.977658 -6.023441 -3.673302 3.152939 -2.691950 -20.642704 -93.811649 -4.499615 -1.728688 -1.861291 -0.848037 -1.942285 16.530205 0.141700 -0.000001 -56.241900 8.140002 3.967891 -5.372838 -7.219728 2.279421 -22.000943 0.400742 -0.675259 12.838427 -1.011308 -3.677911 -2.680833 -0.687800 -0.000000 -55.540801 1.534392 -1.083793 8.404134 -0.228152 -0.879439 -1.740432 -4.640286 -1.003210 -1.336242 13.179243 6.588295 1.960386 -4.133802 -0.355466 2.156890 0.000000 0.000000 0.000000 -6.884859 -9.723716 2.713499 -67.100207 -9.947740 12.506949 -2.750070 -27.669501 0.003166 1.267617 -4.188190 -0.049400 -0.062418 0.117266 -0.000000 0.000000 0.000000 0.000000 0.000000 0.000000 0.000000 22.454328 4.833686 2.583615 54.417690 19.807648 -9.772879 2.789647 10.381742 0.003031 -2.167171 8.929351 -0.174603 0.043983 -0.117285 0.000000 0.000000 0.000000 0.000000 0.000000 0.000000 0.000000 
